<svg width="512" height="512" version="1.1" xmlns="http://www.w3.org/2000/svg" desc="Created with imagetracer.js version 1.2.6" ><path fill="rgb(0,0,0)" stroke="rgb(0,0,0)" stroke-width="1" opacity="0.7686274509803922" d="M 240.5 0 L 249 0.5 L 240.5 1 L 240.5 0 Z " /><path fill="rgb(0,0,0)" stroke="rgb(0,0,0)" stroke-width="1" opacity="0.7686274509803922" d="M 263.5 0 L 272 0.5 L 263.5 1 L 263.5 0 Z " /><path fill="rgb(0,0,0)" stroke="rgb(0,0,0)" stroke-width="1" opacity="0.7686274509803922" d="M 228.5 1 L 232 1.5 L 228.5 2 L 228.5 1 Z " /><path fill="rgb(0,0,0)" stroke="rgb(0,0,0)" stroke-width="1" opacity="0.7686274509803922" d="M 280.5 1 L 284 1.5 L 280.5 2 L 280.5 1 Z " /><path fill="rgb(0,0,0)" stroke="rgb(0,0,0)" stroke-width="1" opacity="0.7686274509803922" d="M 220.5 2 L 223 2.5 L 220.5 3 L 220.5 2 Z " /><path fill="rgb(0,0,0)" stroke="rgb(0,0,0)" stroke-width="1" opacity="0.7686274509803922" d="M 289.5 2 L 292 2.5 L 289.5 3 L 289.5 2 Z " /><path fill="rgb(0,0,0)" stroke="rgb(0,0,0)" stroke-width="1" opacity="0.7686274509803922" d="M 296.5 3 L 299 3.5 L 296.5 4 L 296.5 3 Z " /><path fill="rgb(0,0,0)" stroke="rgb(0,0,0)" stroke-width="1" opacity="0.7686274509803922" d="M 119.5 39 L 118.5 41 L 119.5 39 Z " /><path fill="rgb(0,0,0)" stroke="rgb(0,0,0)" stroke-width="1" opacity="0.7686274509803922" d="M 392.5 39 L 393.5 41 L 392.5 39 Z " /><path fill="rgb(0,0,0)" stroke="rgb(0,0,0)" stroke-width="1" opacity="0.7686274509803922" d="M 110.5 45 L 109.5 47 L 110.5 45 Z " /><path fill="rgb(0,0,0)" stroke="rgb(0,0,0)" stroke-width="1" opacity="0.7686274509803922" d="M 401.5 45 L 402.5 47 L 401.5 45 Z " /><path fill="rgb(0,0,0)" stroke="rgb(0,0,0)" stroke-width="1" opacity="0.7686274509803922" d="M 404.5 47 L 405.5 49 L 404.5 47 Z " /><path fill="rgb(0,0,0)" stroke="rgb(0,0,0)" stroke-width="1" opacity="0.7686274509803922" d="M 103.5 50 L 102.5 52 L 103.5 50 Z " /><path fill="rgb(0,0,0)" stroke="rgb(0,0,0)" stroke-width="1" opacity="0.7686274509803922" d="M 408.5 50 L 409.5 52 L 408.5 50 Z " /><path fill="rgb(0,0,0)" stroke="rgb(0,0,0)" stroke-width="1" opacity="0.7686274509803922" d="M 99.5 53 L 97.5 56 L 99.5 53 Z " /><path fill="rgb(0,0,0)" stroke="rgb(0,0,0)" stroke-width="1" opacity="0.7686274509803922" d="M 412.5 53 L 413.5 55 L 412.5 53 Z " /><path fill="rgb(0,0,0)" stroke="rgb(0,0,0)" stroke-width="1" opacity="0.7686274509803922" d="M 94.5 57 L 92.5 60 L 94.5 57 Z " /><path fill="rgb(0,0,0)" stroke="rgb(0,0,0)" stroke-width="1" opacity="0.7686274509803922" d="M 417.5 57 L 418.5 59 L 417.5 57 Z " /><path fill="rgb(0,0,0)" stroke="rgb(0,0,0)" stroke-width="1" opacity="0.7686274509803922" d="M 88.5 62 L 85.5 66 L 88.5 62 Z " /><path fill="rgb(0,0,0)" stroke="rgb(0,0,0)" stroke-width="1" opacity="0.7686274509803922" d="M 423.5 62 L 426.5 66 L 423.5 62 Z " /><path fill="rgb(0,0,0)" stroke="rgb(0,0,0)" stroke-width="1" opacity="0.7686274509803922" d="M 75.5 74 L 73.5 77 L 75.5 74 Z " /><path fill="rgb(0,0,0)" stroke="rgb(0,0,0)" stroke-width="1" opacity="0.7686274509803922" d="M 436.5 74 L 437.5 76 L 436.5 74 Z " /><path fill="rgb(0,0,0)" stroke="rgb(0,0,0)" stroke-width="1" opacity="0.7686274509803922" d="M 65.5 85 L 62.5 89 L 65.5 85 Z " /><path fill="rgb(0,0,0)" stroke="rgb(0,0,0)" stroke-width="1" opacity="0.7686274509803922" d="M 446.5 85 L 449.5 89 L 446.5 85 Z " /><path fill="rgb(0,0,0)" stroke="rgb(0,0,0)" stroke-width="1" opacity="0.7686274509803922" d="M 59.5 92 L 57.5 95 L 59.5 92 Z " /><path fill="rgb(0,0,0)" stroke="rgb(0,0,0)" stroke-width="1" opacity="0.7686274509803922" d="M 452.5 92 L 454.5 95 L 452.5 92 Z " /><path fill="rgb(0,0,0)" stroke="rgb(0,0,0)" stroke-width="1" opacity="0.7686274509803922" d="M 55.5 97 L 53.5 100 L 55.5 97 Z " /><path fill="rgb(0,0,0)" stroke="rgb(0,0,0)" stroke-width="1" opacity="0.7686274509803922" d="M 456.5 97 L 458.5 100 L 456.5 97 Z " /><path fill="rgb(0,0,0)" stroke="rgb(0,0,0)" stroke-width="1" opacity="0.7686274509803922" d="M 51.5 102 L 50.5 104 L 51.5 102 Z " /><path fill="rgb(0,0,0)" stroke="rgb(0,0,0)" stroke-width="1" opacity="0.7686274509803922" d="M 460.5 102 L 461.5 104 L 460.5 102 Z " /><path fill="rgb(0,0,0)" stroke="rgb(0,0,0)" stroke-width="1" opacity="0.7686274509803922" d="M 231.5 106 L 234 106.5 L 231.5 107 L 231.5 106 Z " /><path fill="rgb(0,0,0)" stroke="rgb(0,0,0)" stroke-width="1" opacity="0.7686274509803922" d="M 278.5 106 L 281 106.5 L 278.5 107 L 278.5 106 Z " /><path fill="rgb(0,0,0)" stroke="rgb(0,0,0)" stroke-width="1" opacity="0.7686274509803922" d="M 46.5 109 L 45.5 111 L 46.5 109 Z " /><path fill="rgb(0,0,0)" stroke="rgb(0,0,0)" stroke-width="1" opacity="0.7686274509803922" d="M 465.5 109 L 466.5 111 L 465.5 109 Z " /><path fill="rgb(0,0,0)" stroke="rgb(0,0,0)" stroke-width="1" opacity="0.7686274509803922" d="M 208.5 116 L 207.5 118 L 208.5 116 Z " /><path fill="rgb(0,0,0)" stroke="rgb(0,0,0)" stroke-width="1" opacity="0.7686274509803922" d="M 40.5 118 L 39.5 120 L 40.5 118 Z " /><path fill="rgb(0,0,0)" stroke="rgb(0,0,0)" stroke-width="1" opacity="0.7686274509803922" d="M 203.5 120 L 202.5 122 L 203.5 120 Z " /><path fill="rgb(0,0,0)" stroke="rgb(0,0,0)" stroke-width="1" opacity="0.7686274509803922" d="M 308.5 120 L 309.5 122 L 308.5 120 Z " /><path fill="rgb(0,0,0)" stroke="rgb(0,0,0)" stroke-width="1" opacity="0.7686274509803922" d="M 235.5 122 L 238 122.5 L 235.5 123 L 235.5 122 Z " /><path fill="rgb(0,0,0)" stroke="rgb(0,0,0)" stroke-width="1" opacity="0.7686274509803922" d="M 274.5 122 L 277 122.5 L 274.5 123 L 274.5 122 Z " /><path fill="rgb(0,0,0)" stroke="rgb(0,0,0)" stroke-width="1" opacity="0.7686274509803922" d="M 198.5 126 L 197.5 128 L 198.5 126 Z " /><path fill="rgb(0,0,0)" stroke="rgb(0,0,0)" stroke-width="1" opacity="0.7686274509803922" d="M 313.5 126 L 314.5 128 L 313.5 126 Z " /><path fill="rgb(0,0,0)" stroke="rgb(0,0,0)" stroke-width="1" opacity="0.7686274509803922" d="M 219.5 128 L 218.5 130 L 219.5 128 Z " /><path fill="rgb(0,0,0)" stroke="rgb(0,0,0)" stroke-width="1" opacity="0.7686274509803922" d="M 292.5 128 L 293.5 130 L 292.5 128 Z " /><path fill="rgb(0,0,0)" stroke="rgb(0,0,0)" stroke-width="1" opacity="0.7686274509803922" d="M 194.5 132 L 193.5 134 L 194.5 132 Z " /><path fill="rgb(0,0,0)" stroke="rgb(0,0,0)" stroke-width="1" opacity="0.7686274509803922" d="M 211.5 136 L 210.5 138 L 211.5 136 Z " /><path fill="rgb(0,0,0)" stroke="rgb(0,0,0)" stroke-width="1" opacity="0.7686274509803922" d="M 187.5 152 L 188 155.5 L 187 155.5 L 187.5 152 Z " /><path fill="rgb(0,0,0)" stroke="rgb(0,0,0)" stroke-width="1" opacity="0.7686274509803922" d="M 324.5 152 L 325 155.5 L 324 155.5 L 324.5 152 Z " /><path fill="rgb(0,0,0)" stroke="rgb(0,0,0)" stroke-width="1" opacity="0.7686274509803922" d="M 203.5 156 L 204 202.5 L 203 202.5 L 203.5 156 Z " /><path fill="rgb(0,0,0)" stroke="rgb(0,0,0)" stroke-width="1" opacity="0.7686274509803922" d="M 308.5 156 L 309 202.5 L 308 202.5 L 308.5 156 Z " /><path fill="rgb(0,0,0)" stroke="rgb(0,0,0)" stroke-width="1" opacity="0.7686274509803922" d="M 138.5 161 L 181 161 L 181 203.5 L 180 203.5 L 180 162 L 138.5 162 L 138.5 161 Z " /><path fill="rgb(0,0,0)" stroke="rgb(0,0,0)" stroke-width="1" opacity="0.7686274509803922" d="M 210.5 161 L 302 161.5 L 210.5 162 L 210.5 161 Z " /><path fill="rgb(0,0,0)" stroke="rgb(0,0,0)" stroke-width="1" opacity="0.7686274509803922" d="M 331 161 L 374 161.5 L 332 162 L 331.5 204 L 331 161 Z " /><path fill="rgb(0,0,0)" stroke="rgb(0,0,0)" stroke-width="1" opacity="0.7686274509803922" d="M 132.5 164 L 131.5 166 L 132.5 164 Z " /><path fill="rgb(0,0,0)" stroke="rgb(0,0,0)" stroke-width="1" opacity="0.7686274509803922" d="M 379.5 164 L 380.5 166 L 379.5 164 Z " /><path fill="rgb(0,0,0)" stroke="rgb(0,0,0)" stroke-width="1" opacity="0.7686274509803922" d="M 128.5 171 L 129 184.5 L 128 184.5 L 128.5 171 Z " /><path fill="rgb(0,0,0)" stroke="rgb(0,0,0)" stroke-width="1" opacity="0.7686274509803922" d="M 383.5 171 L 384 186.5 L 383 186.5 L 383.5 171 Z " /><path fill="rgb(0,0,0)" stroke="rgb(0,0,0)" stroke-width="1" opacity="0.7686274509803922" d="M 183.5 210 L 186.5 214 L 183.5 210 Z " /><path fill="rgb(0,0,0)" stroke="rgb(0,0,0)" stroke-width="1" opacity="0.7686274509803922" d="M 328.5 210 L 325.5 214 L 328.5 210 Z " /><path fill="rgb(0,0,0)" stroke="rgb(0,0,0)" stroke-width="1" opacity="0.7686274509803922" d="M 206.5 211 L 205.5 213 L 206.5 211 Z " /><path fill="rgb(0,0,0)" stroke="rgb(0,0,0)" stroke-width="1" opacity="0.7686274509803922" d="M 305.5 211 L 306.5 213 L 305.5 211 Z " /><path fill="rgb(0,0,0)" stroke="rgb(0,0,0)" stroke-width="1" opacity="0.7686274509803922" d="M 194.5 216 L 197 216.5 L 194.5 217 L 194.5 216 Z " /><path fill="rgb(0,0,0)" stroke="rgb(0,0,0)" stroke-width="1" opacity="0.7686274509803922" d="M 315.5 216 L 318 216.5 L 315.5 217 L 315.5 216 Z " /><path fill="rgb(0,0,0)" stroke="rgb(0,0,0)" stroke-width="1" opacity="0.7686274509803922" d="M 2.5 220 L 3 222.5 L 2 222.5 L 2.5 220 Z " /><path fill="rgb(0,0,0)" stroke="rgb(0,0,0)" stroke-width="1" opacity="0.7686274509803922" d="M 509.5 220 L 510 222.5 L 509 222.5 L 509.5 220 Z " /><path fill="rgb(0,0,0)" stroke="rgb(0,0,0)" stroke-width="1" opacity="0.7686274509803922" d="M 1.5 228 L 2 231.5 L 1 231.5 L 1.5 228 Z " /><path fill="rgb(0,0,0)" stroke="rgb(0,0,0)" stroke-width="1" opacity="0.7686274509803922" d="M 510.5 228 L 511 231.5 L 510 231.5 L 510.5 228 Z " /><path fill="rgb(0,0,0)" stroke="rgb(0,0,0)" stroke-width="1" opacity="0.7686274509803922" d="M 127.5 235 L 128 266.5 L 127 266.5 L 127.5 235 Z " /><path fill="rgb(0,0,0)" stroke="rgb(0,0,0)" stroke-width="1" opacity="0.7686274509803922" d="M 384.5 237 L 385 268.5 L 384 268.5 L 384.5 237 Z " /><path fill="rgb(0,0,0)" stroke="rgb(0,0,0)" stroke-width="1" opacity="0.7686274509803922" d="M 205.5 239 L 204.5 241 L 205.5 239 Z " /><path fill="rgb(0,0,0)" stroke="rgb(0,0,0)" stroke-width="1" opacity="0.7686274509803922" d="M 244.5 239 L 245.5 241 L 244.5 239 Z " /><path fill="rgb(0,0,0)" stroke="rgb(0,0,0)" stroke-width="1" opacity="0.7686274509803922" d="M 0.5 240 L 1 247.5 L 0 247.5 L 0.5 240 Z " /><path fill="rgb(0,0,0)" stroke="rgb(0,0,0)" stroke-width="1" opacity="0.7686274509803922" d="M 511.5 240 L 512 248.5 L 511 248.5 L 511.5 240 Z " /><path fill="rgb(0,0,0)" stroke="rgb(0,0,0)" stroke-width="1" opacity="0.7686274509803922" d="M 202.5 244 L 203 246.5 L 202 246.5 L 202.5 244 Z " /><path fill="rgb(0,0,0)" stroke="rgb(0,0,0)" stroke-width="1" opacity="0.7686274509803922" d="M 511.5 263 L 512 271.5 L 511 271.5 L 511.5 263 Z " /><path fill="rgb(0,0,0)" stroke="rgb(0,0,0)" stroke-width="1" opacity="0.7686274509803922" d="M 0.5 264 L 1 271.5 L 0 271.5 L 0.5 264 Z " /><path fill="rgb(0,0,0)" stroke="rgb(0,0,0)" stroke-width="1" opacity="0.7686274509803922" d="M 202.5 272 L 203 274.5 L 202 274.5 L 202.5 272 Z " /><path fill="rgb(0,0,0)" stroke="rgb(0,0,0)" stroke-width="1" opacity="0.7686274509803922" d="M 204.5 278 L 206.5 281 L 204.5 278 Z " /><path fill="rgb(0,0,0)" stroke="rgb(0,0,0)" stroke-width="1" opacity="0.7686274509803922" d="M 245.5 278 L 243.5 281 L 245.5 278 Z " /><path fill="rgb(0,0,0)" stroke="rgb(0,0,0)" stroke-width="1" opacity="0.7686274509803922" d="M 1.5 280 L 2 283.5 L 1 283.5 L 1.5 280 Z " /><path fill="rgb(0,0,0)" stroke="rgb(0,0,0)" stroke-width="1" opacity="0.7686274509803922" d="M 510.5 280 L 511 283.5 L 510 283.5 L 510.5 280 Z " /><path fill="rgb(0,0,0)" stroke="rgb(0,0,0)" stroke-width="1" opacity="0.7686274509803922" d="M 212.5 282 L 238 282.5 L 212.5 283 L 212.5 282 Z " /><path fill="rgb(0,0,0)" stroke="rgb(0,0,0)" stroke-width="1" opacity="0.7686274509803922" d="M 274.5 282 L 301 282.5 L 274.5 283 L 274.5 282 Z " /><path fill="rgb(0,0,0)" stroke="rgb(0,0,0)" stroke-width="1" opacity="0.7686274509803922" d="M 2.5 289 L 3 291.5 L 2 291.5 L 2.5 289 Z " /><path fill="rgb(0,0,0)" stroke="rgb(0,0,0)" stroke-width="1" opacity="0.7686274509803922" d="M 509.5 289 L 510 291.5 L 509 291.5 L 509.5 289 Z " /><path fill="rgb(0,0,0)" stroke="rgb(0,0,0)" stroke-width="1" opacity="0.7686274509803922" d="M 210.5 299 L 240 299.5 L 210.5 300 L 210.5 299 Z " /><path fill="rgb(0,0,0)" stroke="rgb(0,0,0)" stroke-width="1" opacity="0.7686274509803922" d="M 272.5 299 L 303 299.5 L 272.5 300 L 272.5 299 Z " /><path fill="rgb(0,0,0)" stroke="rgb(0,0,0)" stroke-width="1" opacity="0.7686274509803922" d="M 207.5 300 L 206.5 302 L 207.5 300 Z " /><path fill="rgb(0,0,0)" stroke="rgb(0,0,0)" stroke-width="1" opacity="0.7686274509803922" d="M 268.5 301 L 267.5 303 L 268.5 301 Z " /><path fill="rgb(0,0,0)" stroke="rgb(0,0,0)" stroke-width="1" opacity="0.7686274509803922" d="M 306.5 301 L 308.5 304 L 306.5 301 Z " /><path fill="rgb(0,0,0)" stroke="rgb(0,0,0)" stroke-width="1" opacity="0.7686274509803922" d="M 204.5 303 L 203.5 305 L 204.5 303 Z " /><path fill="rgb(0,0,0)" stroke="rgb(0,0,0)" stroke-width="1" opacity="0.7686274509803922" d="M 126.5 318 L 127 349.5 L 126 349.5 L 126.5 318 Z " /><path fill="rgb(0,0,0)" stroke="rgb(0,0,0)" stroke-width="1" opacity="0.7686274509803922" d="M 385.5 320 L 386 350.5 L 385 350.5 L 385.5 320 Z " /><path fill="rgb(0,0,0)" stroke="rgb(0,0,0)" stroke-width="1" opacity="0.7686274509803922" d="M 266.5 340 L 268.5 343 L 266.5 340 Z " /><path fill="rgb(0,0,0)" stroke="rgb(0,0,0)" stroke-width="1" opacity="0.7686274509803922" d="M 308.5 340 L 306.5 343 L 308.5 340 Z " /><path fill="rgb(0,0,0)" stroke="rgb(0,0,0)" stroke-width="1" opacity="0.7686274509803922" d="M 385.5 380 L 386 382.5 L 385 382.5 L 385.5 380 Z " /><path fill="rgb(0,0,0)" stroke="rgb(0,0,0)" stroke-width="1" opacity="0.7686274509803922" d="M 39.5 392 L 40.5 394 L 39.5 392 Z " /><path fill="rgb(0,0,0)" stroke="rgb(0,0,0)" stroke-width="1" opacity="0.7686274509803922" d="M 130.5 392 L 131.5 394 L 130.5 392 Z " /><path fill="rgb(0,0,0)" stroke="rgb(0,0,0)" stroke-width="1" opacity="0.7686274509803922" d="M 381.5 392 L 380.5 394 L 381.5 392 Z " /><path fill="rgb(0,0,0)" stroke="rgb(0,0,0)" stroke-width="1" opacity="0.7686274509803922" d="M 472.5 392 L 471.5 394 L 472.5 392 Z " /><path fill="rgb(0,0,0)" stroke="rgb(0,0,0)" stroke-width="1" opacity="0.7686274509803922" d="M 134.5 397 L 135.5 399 L 134.5 397 Z " /><path fill="rgb(0,0,0)" stroke="rgb(0,0,0)" stroke-width="1" opacity="0.7686274509803922" d="M 138.5 400 L 139.5 402 L 138.5 400 Z " /><path fill="rgb(0,0,0)" stroke="rgb(0,0,0)" stroke-width="1" opacity="0.7686274509803922" d="M 373.5 400 L 372.5 402 L 373.5 400 Z " /><path fill="rgb(0,0,0)" stroke="rgb(0,0,0)" stroke-width="1" opacity="0.7686274509803922" d="M 45.5 401 L 46.5 403 L 45.5 401 Z " /><path fill="rgb(0,0,0)" stroke="rgb(0,0,0)" stroke-width="1" opacity="0.7686274509803922" d="M 466.5 401 L 465.5 403 L 466.5 401 Z " /><path fill="rgb(0,0,0)" stroke="rgb(0,0,0)" stroke-width="1" opacity="0.7686274509803922" d="M 50.5 408 L 51.5 410 L 50.5 408 Z " /><path fill="rgb(0,0,0)" stroke="rgb(0,0,0)" stroke-width="1" opacity="0.7686274509803922" d="M 461.5 408 L 460.5 410 L 461.5 408 Z " /><path fill="rgb(0,0,0)" stroke="rgb(0,0,0)" stroke-width="1" opacity="0.7686274509803922" d="M 53.5 412 L 55.5 415 L 53.5 412 Z " /><path fill="rgb(0,0,0)" stroke="rgb(0,0,0)" stroke-width="1" opacity="0.7686274509803922" d="M 458.5 412 L 456.5 415 L 458.5 412 Z " /><path fill="rgb(0,0,0)" stroke="rgb(0,0,0)" stroke-width="1" opacity="0.7686274509803922" d="M 57.5 417 L 59.5 420 L 57.5 417 Z " /><path fill="rgb(0,0,0)" stroke="rgb(0,0,0)" stroke-width="1" opacity="0.7686274509803922" d="M 454.5 417 L 452.5 420 L 454.5 417 Z " /><path fill="rgb(0,0,0)" stroke="rgb(0,0,0)" stroke-width="1" opacity="0.7686274509803922" d="M 62.5 423 L 65.5 427 L 62.5 423 Z " /><path fill="rgb(0,0,0)" stroke="rgb(0,0,0)" stroke-width="1" opacity="0.7686274509803922" d="M 448.5 424 L 446.5 427 L 448.5 424 Z " /><path fill="rgb(0,0,0)" stroke="rgb(0,0,0)" stroke-width="1" opacity="0.7686274509803922" d="M 437.5 436 L 436.5 438 L 437.5 436 Z " /><path fill="rgb(0,0,0)" stroke="rgb(0,0,0)" stroke-width="1" opacity="0.7686274509803922" d="M 85.5 446 L 87.5 449 L 85.5 446 Z " /><path fill="rgb(0,0,0)" stroke="rgb(0,0,0)" stroke-width="1" opacity="0.7686274509803922" d="M 426.5 446 L 423.5 450 L 426.5 446 Z " /><path fill="rgb(0,0,0)" stroke="rgb(0,0,0)" stroke-width="1" opacity="0.7686274509803922" d="M 92.5 452 L 94.5 455 L 92.5 452 Z " /><path fill="rgb(0,0,0)" stroke="rgb(0,0,0)" stroke-width="1" opacity="0.7686274509803922" d="M 419.5 452 L 417.5 455 L 419.5 452 Z " /><path fill="rgb(0,0,0)" stroke="rgb(0,0,0)" stroke-width="1" opacity="0.7686274509803922" d="M 97.5 456 L 98.5 458 L 97.5 456 Z " /><path fill="rgb(0,0,0)" stroke="rgb(0,0,0)" stroke-width="1" opacity="0.7686274509803922" d="M 414.5 456 L 412.5 459 L 414.5 456 Z " /><path fill="rgb(0,0,0)" stroke="rgb(0,0,0)" stroke-width="1" opacity="0.7686274509803922" d="M 102.5 460 L 103.5 462 L 102.5 460 Z " /><path fill="rgb(0,0,0)" stroke="rgb(0,0,0)" stroke-width="1" opacity="0.7686274509803922" d="M 409.5 460 L 408.5 462 L 409.5 460 Z " /><path fill="rgb(0,0,0)" stroke="rgb(0,0,0)" stroke-width="1" opacity="0.7686274509803922" d="M 405.5 463 L 404.5 465 L 405.5 463 Z " /><path fill="rgb(0,0,0)" stroke="rgb(0,0,0)" stroke-width="1" opacity="0.7686274509803922" d="M 109.5 465 L 110.5 467 L 109.5 465 Z " /><path fill="rgb(0,0,0)" stroke="rgb(0,0,0)" stroke-width="1" opacity="0.7686274509803922" d="M 402.5 465 L 401.5 467 L 402.5 465 Z " /><path fill="rgb(0,0,0)" stroke="rgb(0,0,0)" stroke-width="1" opacity="0.7686274509803922" d="M 393.5 471 L 392.5 473 L 393.5 471 Z " /><path fill="rgb(0,0,0)" stroke="rgb(0,0,0)" stroke-width="1" opacity="0.7686274509803922" d="M 296.5 508 L 299 508.5 L 296.5 509 L 296.5 508 Z " /><path fill="rgb(0,0,0)" stroke="rgb(0,0,0)" stroke-width="1" opacity="0.7686274509803922" d="M 220.5 509 L 223 509.5 L 220.5 510 L 220.5 509 Z " /><path fill="rgb(0,0,0)" stroke="rgb(0,0,0)" stroke-width="1" opacity="0.7686274509803922" d="M 289.5 509 L 292 509.5 L 289.5 510 L 289.5 509 Z " /><path fill="rgb(0,0,0)" stroke="rgb(0,0,0)" stroke-width="1" opacity="0.7686274509803922" d="M 228.5 510 L 232 510.5 L 228.5 511 L 228.5 510 Z " /><path fill="rgb(0,0,0)" stroke="rgb(0,0,0)" stroke-width="1" opacity="0.7686274509803922" d="M 280.5 510 L 284 510.5 L 280.5 511 L 280.5 510 Z " /><path fill="rgb(0,0,0)" stroke="rgb(0,0,0)" stroke-width="1" opacity="0.7686274509803922" d="M 240.5 511 L 249 511.5 L 240.5 512 L 240.5 511 Z " /><path fill="rgb(0,0,0)" stroke="rgb(0,0,0)" stroke-width="1" opacity="0.7686274509803922" d="M 263.5 511 L 272 511.5 L 263.5 512 L 263.5 511 Z " /><path fill="rgb(0,0,0)" stroke="rgb(0,0,0)" stroke-width="1" opacity="1" d="M 249.5 0 L 279.5 1 L 280.5 2 L 301.5 4 Q 331 9.5 355.5 20 Q 409.5 43.5 446 84.5 Q 477.6 118.9 496 166.5 Q 503.6 186.9 508 210.5 L 510 231.5 L 511 232.5 L 512 262.5 L 511 263.5 L 510 288.5 L 506 311.5 Q 499.5 340.5 488 364.5 Q 464.9 412.4 427.5 446 Q 393 477.5 345.5 496 Q 325.1 503.6 301.5 508 L 280.5 510 L 279.5 511 L 249.5 512 L 248.5 511 L 223.5 510 L 200.5 506 Q 170.4 499.1 145.5 487 Q 98.9 464.1 66 427.5 Q 34.5 393 16 345.5 L 9 323.5 L 3 295.5 L 2 280.5 L 1 279.5 L 0 248.5 L 1 247.5 L 2 223.5 L 6 200.5 Q 12.5 171.5 24 147.5 Q 47.1 99.6 84.5 66 Q 115.4 37.9 156.5 20 Q 176.9 11.4 200.5 6 L 223.5 2 L 248.5 1 L 249.5 0 Z M 232 106 Q 214 110 204 120 Q 190 131 187 153 L 187 205 L 189 208 L 194 210 L 200 209 L 204 203 L 204 153 Q 206 142 212 136 L 221 128 L 229 124 L 239 122 L 274 122 L 284 124 L 295 130 Q 305 138 308 153 L 308 203 L 309 206 L 315 210 Q 321 211 323 208 L 325 205 L 325 153 Q 322 133 310 122 Q 299 110 281 106 L 232 106 Z M 139 161 L 133 164 L 128 172 L 127 318 L 126 319 L 126 383 Q 128 392 134 398 Q 140 404 150 406 L 363 406 L 373 402 L 378 398 L 382 393 L 386 383 L 384 172 L 381 166 L 374 161 L 331 161 L 331 206 L 329 210 L 321 216 Q 312 217 309 214 Q 304 211 302 205 L 302 161 L 210 161 L 210 205 L 208 210 L 200 216 Q 191 217 188 214 Q 182 212 181 206 L 181 161 L 139 161 Z " /><path fill="rgb(0,0,0)" stroke="rgb(0,0,0)" stroke-width="1" opacity="1" d="M 210.5 237 L 239.5 237 L 246 241.5 L 248 246.5 L 248 272.5 L 247 276.5 L 242.5 281 L 240.5 282 L 209.5 282 L 203 276.5 L 202 271.5 L 202 247.5 Q 202.9 240.9 207.5 238 L 210.5 237 Z " /><path fill="rgb(0,0,0)" stroke="rgb(0,0,0)" stroke-width="1" opacity="1" d="M 272.5 237 L 302.5 237 L 308 240.5 L 310 244.5 L 310 274.5 L 305.5 281 L 303.5 282 L 271.5 282 L 267 278.5 L 265 274.5 L 265 244.5 L 268.5 239 L 272.5 237 Z " /><path fill="rgb(0,0,0)" stroke="rgb(0,0,0)" stroke-width="1" opacity="1" d="M 208.5 300 L 241.5 300 L 246 303.5 L 248 308.5 L 248 335.5 L 243.5 343 L 238.5 345 L 211.5 345 L 204 340.5 L 202 334.5 L 202 309.5 L 205 302 L 208.5 300 Z " /><path fill="rgb(0,0,0)" stroke="rgb(0,0,0)" stroke-width="1" opacity="1" d="M 271.5 300 L 303.5 300 L 309 304.5 L 310 306.5 L 310 337.5 L 304.5 344 L 301.5 345 L 273.5 345 L 266 339.5 L 265 337.5 L 265 306.5 L 269.5 301 L 271.5 300 Z " /><path fill="rgb(0,0,0)" stroke="rgb(0,0,0)" stroke-width="1" opacity="0.22745098039215686" d="M 235.5 0 L 240 0.5 L 235.5 1 L 235.5 0 Z " /><path fill="rgb(0,0,0)" stroke="rgb(0,0,0)" stroke-width="1" opacity="0.22745098039215686" d="M 272.5 0 L 277 0.5 L 272.5 1 L 272.5 0 Z " /><path fill="rgb(0,0,0)" stroke="rgb(0,0,0)" stroke-width="1" opacity="0.22745098039215686" d="M 225.5 1 L 228 1.5 L 225.5 2 L 225.5 1 Z " /><path fill="rgb(0,0,0)" stroke="rgb(0,0,0)" stroke-width="1" opacity="0.22745098039215686" d="M 284.5 1 L 287 1.5 L 284.5 2 L 284.5 1 Z " /><path fill="rgb(0,0,0)" stroke="rgb(0,0,0)" stroke-width="1" opacity="0.22745098039215686" d="M 217.5 2 L 220 2.5 L 217.5 3 L 217.5 2 Z " /><path fill="rgb(0,0,0)" stroke="rgb(0,0,0)" stroke-width="1" opacity="0.22745098039215686" d="M 292.5 2 L 295 2.5 L 292.5 3 L 292.5 2 Z " /><path fill="rgb(0,0,0)" stroke="rgb(0,0,0)" stroke-width="1" opacity="0.22745098039215686" d="M 123.5 36 L 122.5 38 L 123.5 36 Z " /><path fill="rgb(0,0,0)" stroke="rgb(0,0,0)" stroke-width="1" opacity="0.22745098039215686" d="M 388.5 36 L 389.5 38 L 388.5 36 Z " /><path fill="rgb(0,0,0)" stroke="rgb(0,0,0)" stroke-width="1" opacity="0.22745098039215686" d="M 108.5 46 L 107.5 48 L 108.5 46 Z " /><path fill="rgb(0,0,0)" stroke="rgb(0,0,0)" stroke-width="1" opacity="0.22745098039215686" d="M 105.5 48 L 104.5 50 L 105.5 48 Z " /><path fill="rgb(0,0,0)" stroke="rgb(0,0,0)" stroke-width="1" opacity="0.22745098039215686" d="M 101.5 51 L 100.5 53 L 101.5 51 Z " /><path fill="rgb(0,0,0)" stroke="rgb(0,0,0)" stroke-width="1" opacity="0.22745098039215686" d="M 410.5 51 L 411.5 53 L 410.5 51 Z " /><path fill="rgb(0,0,0)" stroke="rgb(0,0,0)" stroke-width="1" opacity="0.22745098039215686" d="M 96.5 55 L 95.5 57 L 96.5 55 Z " /><path fill="rgb(0,0,0)" stroke="rgb(0,0,0)" stroke-width="1" opacity="0.22745098039215686" d="M 415.5 55 L 416.5 57 L 415.5 55 Z " /><path fill="rgb(0,0,0)" stroke="rgb(0,0,0)" stroke-width="1" opacity="0.22745098039215686" d="M 91.5 59 L 89.5 62 L 91.5 59 Z " /><path fill="rgb(0,0,0)" stroke="rgb(0,0,0)" stroke-width="1" opacity="0.22745098039215686" d="M 420.5 59 L 422.5 62 L 420.5 59 Z " /><path fill="rgb(0,0,0)" stroke="rgb(0,0,0)" stroke-width="1" opacity="0.22745098039215686" d="M 84.5 65 L 76.5 74 L 84.5 65 Z " /><path fill="rgb(0,0,0)" stroke="rgb(0,0,0)" stroke-width="1" opacity="0.22745098039215686" d="M 427.5 65 L 435.5 74 L 427.5 65 Z " /><path fill="rgb(0,0,0)" stroke="rgb(0,0,0)" stroke-width="1" opacity="0.22745098039215686" d="M 438.5 76 L 446.5 85 L 438.5 76 Z " /><path fill="rgb(0,0,0)" stroke="rgb(0,0,0)" stroke-width="1" opacity="0.22745098039215686" d="M 72.5 77 L 65.5 85 L 72.5 77 Z " /><path fill="rgb(0,0,0)" stroke="rgb(0,0,0)" stroke-width="1" opacity="0.22745098039215686" d="M 61.5 89 L 59.5 92 L 61.5 89 Z " /><path fill="rgb(0,0,0)" stroke="rgb(0,0,0)" stroke-width="1" opacity="0.22745098039215686" d="M 450.5 89 L 452.5 92 L 450.5 89 Z " /><path fill="rgb(0,0,0)" stroke="rgb(0,0,0)" stroke-width="1" opacity="0.22745098039215686" d="M 56.5 95 L 55.5 97 L 56.5 95 Z " /><path fill="rgb(0,0,0)" stroke="rgb(0,0,0)" stroke-width="1" opacity="0.22745098039215686" d="M 455.5 95 L 456.5 97 L 455.5 95 Z " /><path fill="rgb(0,0,0)" stroke="rgb(0,0,0)" stroke-width="1" opacity="0.22745098039215686" d="M 52.5 100 L 51.5 102 L 52.5 100 Z " /><path fill="rgb(0,0,0)" stroke="rgb(0,0,0)" stroke-width="1" opacity="0.22745098039215686" d="M 459.5 100 L 460.5 102 L 459.5 100 Z " /><path fill="rgb(0,0,0)" stroke="rgb(0,0,0)" stroke-width="1" opacity="0.22745098039215686" d="M 462.5 104 L 463.5 106 L 462.5 104 Z " /><path fill="rgb(0,0,0)" stroke="rgb(0,0,0)" stroke-width="1" opacity="0.22745098039215686" d="M 234.5 106 L 238 106.5 L 234.5 107 L 234.5 106 Z " /><path fill="rgb(0,0,0)" stroke="rgb(0,0,0)" stroke-width="1" opacity="0.22745098039215686" d="M 274.5 106 L 278 106.5 L 274.5 107 L 274.5 106 Z " /><path fill="rgb(0,0,0)" stroke="rgb(0,0,0)" stroke-width="1" opacity="0.22745098039215686" d="M 47.5 107 L 46.5 109 L 47.5 107 Z " /><path fill="rgb(0,0,0)" stroke="rgb(0,0,0)" stroke-width="1" opacity="0.22745098039215686" d="M 464.5 107 L 465.5 109 L 464.5 107 Z " /><path fill="rgb(0,0,0)" stroke="rgb(0,0,0)" stroke-width="1" opacity="0.22745098039215686" d="M 304.5 117 L 307.5 121 L 304.5 117 Z " /><path fill="rgb(0,0,0)" stroke="rgb(0,0,0)" stroke-width="1" opacity="0.22745098039215686" d="M 206.5 118 L 204.5 121 L 206.5 118 Z " /><path fill="rgb(0,0,0)" stroke="rgb(0,0,0)" stroke-width="1" opacity="0.22745098039215686" d="M 37.5 122 L 36.5 124 L 37.5 122 Z " /><path fill="rgb(0,0,0)" stroke="rgb(0,0,0)" stroke-width="1" opacity="0.22745098039215686" d="M 202.5 122 L 199.5 126 L 202.5 122 Z " /><path fill="rgb(0,0,0)" stroke="rgb(0,0,0)" stroke-width="1" opacity="0.22745098039215686" d="M 232.5 122 L 235 122.5 L 232.5 123 L 232.5 122 Z " /><path fill="rgb(0,0,0)" stroke="rgb(0,0,0)" stroke-width="1" opacity="0.22745098039215686" d="M 277.5 122 L 280 122.5 L 277.5 123 L 277.5 122 Z " /><path fill="rgb(0,0,0)" stroke="rgb(0,0,0)" stroke-width="1" opacity="0.22745098039215686" d="M 309.5 122 L 312.5 126 L 309.5 122 Z " /><path fill="rgb(0,0,0)" stroke="rgb(0,0,0)" stroke-width="1" opacity="0.22745098039215686" d="M 474.5 122 L 475.5 124 L 474.5 122 Z " /><path fill="rgb(0,0,0)" stroke="rgb(0,0,0)" stroke-width="1" opacity="0.22745098039215686" d="M 197.5 128 L 196.5 130 L 197.5 128 Z " /><path fill="rgb(0,0,0)" stroke="rgb(0,0,0)" stroke-width="1" opacity="0.22745098039215686" d="M 314.5 128 L 315.5 130 L 314.5 128 Z " /><path fill="rgb(0,0,0)" stroke="rgb(0,0,0)" stroke-width="1" opacity="0.22745098039215686" d="M 217.5 129 L 211.5 136 L 217.5 129 Z " /><path fill="rgb(0,0,0)" stroke="rgb(0,0,0)" stroke-width="1" opacity="0.22745098039215686" d="M 294.5 129 L 300.5 136 L 294.5 129 Z " /><path fill="rgb(0,0,0)" stroke="rgb(0,0,0)" stroke-width="1" opacity="0.22745098039215686" d="M 203.5 153 L 204 155.5 L 203 155.5 L 203.5 153 Z " /><path fill="rgb(0,0,0)" stroke="rgb(0,0,0)" stroke-width="1" opacity="0.22745098039215686" d="M 308.5 153 L 309 155.5 L 308 155.5 L 308.5 153 Z " /><path fill="rgb(0,0,0)" stroke="rgb(0,0,0)" stroke-width="1" opacity="0.22745098039215686" d="M 187.5 156 L 188 202.5 L 187 202.5 L 187.5 156 Z " /><path fill="rgb(0,0,0)" stroke="rgb(0,0,0)" stroke-width="1" opacity="0.22745098039215686" d="M 324.5 156 L 325 202.5 L 324 202.5 L 324.5 156 Z " /><path fill="rgb(0,0,0)" stroke="rgb(0,0,0)" stroke-width="1" opacity="0.22745098039215686" d="M 210.5 162 L 211 203.5 L 210 203.5 L 210.5 162 Z " /><path fill="rgb(0,0,0)" stroke="rgb(0,0,0)" stroke-width="1" opacity="0.22745098039215686" d="M 301.5 162 L 302 203.5 L 301 203.5 L 301.5 162 Z " /><path fill="rgb(0,0,0)" stroke="rgb(0,0,0)" stroke-width="1" opacity="0.22745098039215686" d="M 128.5 185 L 129 216.5 L 128 216.5 L 128.5 185 Z " /><path fill="rgb(0,0,0)" stroke="rgb(0,0,0)" stroke-width="1" opacity="0.22745098039215686" d="M 383.5 187 L 384 218.5 L 383 218.5 L 383.5 187 Z " /><path fill="rgb(0,0,0)" stroke="rgb(0,0,0)" stroke-width="1" opacity="0.22745098039215686" d="M 201.5 206 L 200.5 208 L 201.5 206 Z " /><path fill="rgb(0,0,0)" stroke="rgb(0,0,0)" stroke-width="1" opacity="0.22745098039215686" d="M 310.5 206 L 311.5 208 L 310.5 206 Z " /><path fill="rgb(0,0,0)" stroke="rgb(0,0,0)" stroke-width="1" opacity="0.22745098039215686" d="M 190.5 207 L 191.5 209 L 190.5 207 Z " /><path fill="rgb(0,0,0)" stroke="rgb(0,0,0)" stroke-width="1" opacity="0.22745098039215686" d="M 194.5 209 L 197 209.5 L 194.5 210 L 194.5 209 Z " /><path fill="rgb(0,0,0)" stroke="rgb(0,0,0)" stroke-width="1" opacity="0.22745098039215686" d="M 315.5 209 L 318 209.5 L 315.5 210 L 315.5 209 Z " /><path fill="rgb(0,0,0)" stroke="rgb(0,0,0)" stroke-width="1" opacity="0.22745098039215686" d="M 3.5 211 L 4 213.5 L 3 213.5 L 3.5 211 Z " /><path fill="rgb(0,0,0)" stroke="rgb(0,0,0)" stroke-width="1" opacity="0.22745098039215686" d="M 508.5 211 L 509 213.5 L 508 213.5 L 508.5 211 Z " /><path fill="rgb(0,0,0)" stroke="rgb(0,0,0)" stroke-width="1" opacity="0.22745098039215686" d="M 204.5 213 L 203.5 215 L 204.5 213 Z " /><path fill="rgb(0,0,0)" stroke="rgb(0,0,0)" stroke-width="1" opacity="0.22745098039215686" d="M 307.5 213 L 308.5 215 L 307.5 213 Z " /><path fill="rgb(0,0,0)" stroke="rgb(0,0,0)" stroke-width="1" opacity="0.22745098039215686" d="M 2.5 217 L 3 219.5 L 2 219.5 L 2.5 217 Z " /><path fill="rgb(0,0,0)" stroke="rgb(0,0,0)" stroke-width="1" opacity="0.22745098039215686" d="M 1.5 225 L 2 227.5 L 1 227.5 L 1.5 225 Z " /><path fill="rgb(0,0,0)" stroke="rgb(0,0,0)" stroke-width="1" opacity="0.22745098039215686" d="M 510.5 225 L 511 227.5 L 510 227.5 L 510.5 225 Z " /><path fill="rgb(0,0,0)" stroke="rgb(0,0,0)" stroke-width="1" opacity="0.22745098039215686" d="M 0.5 235 L 1 239.5 L 0 239.5 L 0.5 235 Z " /><path fill="rgb(0,0,0)" stroke="rgb(0,0,0)" stroke-width="1" opacity="0.22745098039215686" d="M 511.5 235 L 512 239.5 L 511 239.5 L 511.5 235 Z " /><path fill="rgb(0,0,0)" stroke="rgb(0,0,0)" stroke-width="1" opacity="0.22745098039215686" d="M 210.5 236 L 240 236.5 L 210.5 237 L 210.5 236 Z " /><path fill="rgb(0,0,0)" stroke="rgb(0,0,0)" stroke-width="1" opacity="0.22745098039215686" d="M 273.5 236 L 302 236.5 L 273.5 237 L 273.5 236 Z " /><path fill="rgb(0,0,0)" stroke="rgb(0,0,0)" stroke-width="1" opacity="0.22745098039215686" d="M 306.5 238 L 308.5 241 L 306.5 238 Z " /><path fill="rgb(0,0,0)" stroke="rgb(0,0,0)" stroke-width="1" opacity="0.22745098039215686" d="M 267.5 239 L 266.5 241 L 267.5 239 Z " /><path fill="rgb(0,0,0)" stroke="rgb(0,0,0)" stroke-width="1" opacity="0.22745098039215686" d="M 310.5 244 L 311 274.5 L 310 274.5 L 310.5 244 Z " /><path fill="rgb(0,0,0)" stroke="rgb(0,0,0)" stroke-width="1" opacity="0.22745098039215686" d="M 264.5 245 L 265 274.5 L 264 274.5 L 264.5 245 Z " /><path fill="rgb(0,0,0)" stroke="rgb(0,0,0)" stroke-width="1" opacity="0.22745098039215686" d="M 127.5 267 L 128 298.5 L 127 298.5 L 127.5 267 Z " /><path fill="rgb(0,0,0)" stroke="rgb(0,0,0)" stroke-width="1" opacity="0.22745098039215686" d="M 384.5 269 L 385 300.5 L 384 300.5 L 384.5 269 Z " /><path fill="rgb(0,0,0)" stroke="rgb(0,0,0)" stroke-width="1" opacity="0.22745098039215686" d="M 0.5 272 L 1 276.5 L 0 276.5 L 0.5 272 Z " /><path fill="rgb(0,0,0)" stroke="rgb(0,0,0)" stroke-width="1" opacity="0.22745098039215686" d="M 511.5 272 L 512 276.5 L 511 276.5 L 511.5 272 Z " /><path fill="rgb(0,0,0)" stroke="rgb(0,0,0)" stroke-width="1" opacity="0.22745098039215686" d="M 266.5 278 L 268.5 281 L 266.5 278 Z " /><path fill="rgb(0,0,0)" stroke="rgb(0,0,0)" stroke-width="1" opacity="0.22745098039215686" d="M 308.5 278 L 306.5 281 L 308.5 278 Z " /><path fill="rgb(0,0,0)" stroke="rgb(0,0,0)" stroke-width="1" opacity="0.22745098039215686" d="M 1.5 284 L 2 286.5 L 1 286.5 L 1.5 284 Z " /><path fill="rgb(0,0,0)" stroke="rgb(0,0,0)" stroke-width="1" opacity="0.22745098039215686" d="M 510.5 284 L 511 286.5 L 510 286.5 L 510.5 284 Z " /><path fill="rgb(0,0,0)" stroke="rgb(0,0,0)" stroke-width="1" opacity="0.22745098039215686" d="M 2.5 292 L 3 294.5 L 2 294.5 L 2.5 292 Z " /><path fill="rgb(0,0,0)" stroke="rgb(0,0,0)" stroke-width="1" opacity="0.22745098039215686" d="M 3.5 298 L 4 300.5 L 3 300.5 L 3.5 298 Z " /><path fill="rgb(0,0,0)" stroke="rgb(0,0,0)" stroke-width="1" opacity="0.22745098039215686" d="M 508.5 298 L 509 300.5 L 508 300.5 L 508.5 298 Z " /><path fill="rgb(0,0,0)" stroke="rgb(0,0,0)" stroke-width="1" opacity="0.22745098039215686" d="M 205.5 301 L 204.5 303 L 205.5 301 Z " /><path fill="rgb(0,0,0)" stroke="rgb(0,0,0)" stroke-width="1" opacity="0.22745098039215686" d="M 244.5 301 L 245.5 303 L 244.5 301 Z " /><path fill="rgb(0,0,0)" stroke="rgb(0,0,0)" stroke-width="1" opacity="0.22745098039215686" d="M 264.5 307 L 265 336.5 L 264 336.5 L 264.5 307 Z " /><path fill="rgb(0,0,0)" stroke="rgb(0,0,0)" stroke-width="1" opacity="0.22745098039215686" d="M 310.5 307 L 311 336.5 L 310 336.5 L 310.5 307 Z " /><path fill="rgb(0,0,0)" stroke="rgb(0,0,0)" stroke-width="1" opacity="0.22745098039215686" d="M 203.5 340 L 206.5 344 L 203.5 340 Z " /><path fill="rgb(0,0,0)" stroke="rgb(0,0,0)" stroke-width="1" opacity="0.22745098039215686" d="M 246.5 340 L 243.5 344 L 246.5 340 Z " /><path fill="rgb(0,0,0)" stroke="rgb(0,0,0)" stroke-width="1" opacity="0.22745098039215686" d="M 126.5 350 L 127 380.5 L 126 380.5 L 126.5 350 Z " /><path fill="rgb(0,0,0)" stroke="rgb(0,0,0)" stroke-width="1" opacity="0.22745098039215686" d="M 385.5 351 L 386 379.5 L 385 379.5 L 385.5 351 Z " /><path fill="rgb(0,0,0)" stroke="rgb(0,0,0)" stroke-width="1" opacity="0.22745098039215686" d="M 36.5 388 L 37.5 390 L 36.5 388 Z " /><path fill="rgb(0,0,0)" stroke="rgb(0,0,0)" stroke-width="1" opacity="0.22745098039215686" d="M 132.5 394 L 134.5 397 L 132.5 394 Z " /><path fill="rgb(0,0,0)" stroke="rgb(0,0,0)" stroke-width="1" opacity="0.22745098039215686" d="M 379.5 394 L 378.5 396 L 379.5 394 Z " /><path fill="rgb(0,0,0)" stroke="rgb(0,0,0)" stroke-width="1" opacity="0.22745098039215686" d="M 376.5 397 L 374.5 400 L 376.5 397 Z " /><path fill="rgb(0,0,0)" stroke="rgb(0,0,0)" stroke-width="1" opacity="0.22745098039215686" d="M 136.5 398 L 137.5 400 L 136.5 398 Z " /><path fill="rgb(0,0,0)" stroke="rgb(0,0,0)" stroke-width="1" opacity="0.22745098039215686" d="M 46.5 403 L 47.5 405 L 46.5 403 Z " /><path fill="rgb(0,0,0)" stroke="rgb(0,0,0)" stroke-width="1" opacity="0.22745098039215686" d="M 465.5 403 L 464.5 405 L 465.5 403 Z " /><path fill="rgb(0,0,0)" stroke="rgb(0,0,0)" stroke-width="1" opacity="0.22745098039215686" d="M 150.5 405 L 153 405.5 L 150.5 406 L 150.5 405 Z " /><path fill="rgb(0,0,0)" stroke="rgb(0,0,0)" stroke-width="1" opacity="0.22745098039215686" d="M 358.5 405 L 362 405.5 L 358.5 406 L 358.5 405 Z " /><path fill="rgb(0,0,0)" stroke="rgb(0,0,0)" stroke-width="1" opacity="0.22745098039215686" d="M 463.5 406 L 462.5 408 L 463.5 406 Z " /><path fill="rgb(0,0,0)" stroke="rgb(0,0,0)" stroke-width="1" opacity="0.22745098039215686" d="M 51.5 410 L 52.5 412 L 51.5 410 Z " /><path fill="rgb(0,0,0)" stroke="rgb(0,0,0)" stroke-width="1" opacity="0.22745098039215686" d="M 460.5 410 L 459.5 412 L 460.5 410 Z " /><path fill="rgb(0,0,0)" stroke="rgb(0,0,0)" stroke-width="1" opacity="0.22745098039215686" d="M 55.5 415 L 56.5 417 L 55.5 415 Z " /><path fill="rgb(0,0,0)" stroke="rgb(0,0,0)" stroke-width="1" opacity="0.22745098039215686" d="M 456.5 415 L 455.5 417 L 456.5 415 Z " /><path fill="rgb(0,0,0)" stroke="rgb(0,0,0)" stroke-width="1" opacity="0.22745098039215686" d="M 59.5 420 L 61.5 423 L 59.5 420 Z " /><path fill="rgb(0,0,0)" stroke="rgb(0,0,0)" stroke-width="1" opacity="0.22745098039215686" d="M 452.5 420 L 449.5 424 L 452.5 420 Z " /><path fill="rgb(0,0,0)" stroke="rgb(0,0,0)" stroke-width="1" opacity="0.22745098039215686" d="M 65.5 427 L 73.5 436 L 65.5 427 Z " /><path fill="rgb(0,0,0)" stroke="rgb(0,0,0)" stroke-width="1" opacity="0.22745098039215686" d="M 446.5 427 L 438.5 436 L 446.5 427 Z " /><path fill="rgb(0,0,0)" stroke="rgb(0,0,0)" stroke-width="1" opacity="0.22745098039215686" d="M 75.5 437 L 84.5 447 L 75.5 437 Z " /><path fill="rgb(0,0,0)" stroke="rgb(0,0,0)" stroke-width="1" opacity="0.22745098039215686" d="M 435.5 438 L 427.5 447 L 435.5 438 Z " /><path fill="rgb(0,0,0)" stroke="rgb(0,0,0)" stroke-width="1" opacity="0.22745098039215686" d="M 88.5 449 L 91.5 453 L 88.5 449 Z " /><path fill="rgb(0,0,0)" stroke="rgb(0,0,0)" stroke-width="1" opacity="0.22745098039215686" d="M 422.5 450 L 420.5 453 L 422.5 450 Z " /><path fill="rgb(0,0,0)" stroke="rgb(0,0,0)" stroke-width="1" opacity="0.22745098039215686" d="M 95.5 455 L 96.5 457 L 95.5 455 Z " /><path fill="rgb(0,0,0)" stroke="rgb(0,0,0)" stroke-width="1" opacity="0.22745098039215686" d="M 416.5 455 L 415.5 457 L 416.5 455 Z " /><path fill="rgb(0,0,0)" stroke="rgb(0,0,0)" stroke-width="1" opacity="0.22745098039215686" d="M 99.5 458 L 101.5 461 L 99.5 458 Z " /><path fill="rgb(0,0,0)" stroke="rgb(0,0,0)" stroke-width="1" opacity="0.22745098039215686" d="M 411.5 459 L 410.5 461 L 411.5 459 Z " /><path fill="rgb(0,0,0)" stroke="rgb(0,0,0)" stroke-width="1" opacity="0.22745098039215686" d="M 107.5 464 L 108.5 466 L 107.5 464 Z " /><path fill="rgb(0,0,0)" stroke="rgb(0,0,0)" stroke-width="1" opacity="0.22745098039215686" d="M 389.5 474 L 388.5 476 L 389.5 474 Z " /><path fill="rgb(0,0,0)" stroke="rgb(0,0,0)" stroke-width="1" opacity="0.22745098039215686" d="M 217.5 509 L 220 509.5 L 217.5 510 L 217.5 509 Z " /><path fill="rgb(0,0,0)" stroke="rgb(0,0,0)" stroke-width="1" opacity="0.22745098039215686" d="M 225.5 510 L 228 510.5 L 225.5 511 L 225.5 510 Z " /><path fill="rgb(0,0,0)" stroke="rgb(0,0,0)" stroke-width="1" opacity="0.22745098039215686" d="M 284.5 510 L 287 510.5 L 284.5 511 L 284.5 510 Z " /><path fill="rgb(0,0,0)" stroke="rgb(0,0,0)" stroke-width="1" opacity="0.22745098039215686" d="M 235.5 511 L 240 511.5 L 235.5 512 L 235.5 511 Z " /><path fill="rgb(0,0,0)" stroke="rgb(0,0,0)" stroke-width="1" opacity="0.22745098039215686" d="M 272.5 511 L 277 511.5 L 272.5 512 L 272.5 511 Z " /><path fill="rgb(0,0,0)" stroke="rgb(0,0,0)" stroke-width="1" opacity="0" d="M 0 0 L 235 0.5 L 217.5 2 Q 211 5 201.5 5 L 185.5 9 L 152.5 21 Q 100.5 44.5 65 84.5 Q 38.2 113.7 21 152.5 L 9 185.5 L 5 201.5 L 2 217.5 L 0.5 235 L 0 0 Z " /><path fill="rgb(0,0,0)" stroke="rgb(0,0,0)" stroke-width="1" opacity="0" d="M 277.5 0 L 512 0 L 512 234.5 L 511 234.5 L 511 225.5 L 510 224.5 L 507 201.5 L 503 185.5 L 491 152.5 Q 467.5 100.5 427.5 65 Q 398.3 38.2 359.5 21 L 326.5 9 L 294.5 2 L 277.5 1 L 277.5 0 Z " /><path fill="rgb(0,0,0)" stroke="rgb(0,0,0)" stroke-width="1" opacity="0" d="M 238.5 106 L 273.5 106 Q 275.2 108.8 281.5 107 L 299.5 114 L 309 121 L 318 133.5 L 324 150.5 L 324 204.5 L 321.5 208 L 313.5 209 L 309 203.5 L 309 153.5 L 308 148.5 Q 303.7 136.3 294.5 129 L 279.5 122 L 232.5 122 Q 218.6 125.6 211 135.5 Q 205 142.5 203 153.5 L 203 203.5 L 198.5 209 L 192.5 209 L 189 207 L 188 204.5 L 188 150.5 L 194 133.5 L 203 121 L 220.5 110 L 238.5 106 Z " /><path fill="rgb(0,0,0)" stroke="rgb(0,0,0)" stroke-width="1" opacity="0" d="M 137.5 162 L 180 162 L 180 204.5 L 184 213 L 192.5 217 L 198.5 217 Q 205 215.5 208 210.5 L 211 203.5 L 211 162 L 301 162 L 301 203.5 Q 302.2 211.8 308.5 215 Q 312.1 217.9 319.5 217 Q 326.7 215.2 330 209.5 L 332 204.5 L 332 162 L 374.5 162 L 381 166.5 L 383 170.5 L 383 218.5 L 384 219.5 L 385 383.5 L 378 397 L 366.5 404 L 357.5 406 L 153.5 406 Q 141.8 404.1 135 398 L 127 383.5 L 127 299.5 L 128 298.5 L 129 170.5 L 133.5 164 L 137.5 162 Z M 211 236 L 207 238 L 202 244 L 202 276 L 203 278 L 211 283 L 240 283 L 243 282 L 248 276 L 248 244 L 247 242 L 240 236 L 211 236 Z M 274 236 L 268 239 L 264 246 L 264 275 L 266 279 L 273 283 L 303 283 L 307 281 L 311 275 L 311 245 L 309 241 L 302 236 L 274 236 Z M 210 299 L 206 301 L 202 307 L 202 339 L 203 341 L 209 345 L 242 345 L 244 344 L 248 339 L 248 306 L 246 303 L 241 299 L 210 299 Z M 272 299 L 270 300 L 264 308 L 264 337 L 265 340 L 272 345 L 304 345 L 306 344 L 311 337 L 311 308 L 310 305 L 304 299 L 272 299 Z " /><path fill="rgb(0,0,0)" stroke="rgb(0,0,0)" stroke-width="1" opacity="0" d="M 0.5 277 L 2 294.5 L 5 310.5 L 9 326.5 L 21 359.5 Q 44.6 411.4 84.5 447 Q 113.9 473.6 152.5 491 L 185.5 503 L 201.5 507 Q 211 507 217.5 510 L 235 511.5 L 0 512 L 0.5 277 Z " /><path fill="rgb(0,0,0)" stroke="rgb(0,0,0)" stroke-width="1" opacity="0" d="M 511.5 277 L 512 512 L 277 511.5 L 310.5 507 L 326.5 503 L 359.5 491 Q 411.4 467.4 447 427.5 Q 473.6 398.1 491 359.5 L 503 326.5 L 507 310.5 L 511.5 277 Z " /></svg>